# xmcd CD database file
# Copyright (C) 1995-1998 Ti Kan
#
# Track frame offsets:
#	150
#	5260
#	29665
#	49342
#	68490
#	95137
#	119945
#	146245
#	169735
#	183830
#	202680
#	217132
#	245135
#
# Disc length: 3578 seconds
#
# Revision: 1
# Processed by: cddbd v1.4b41PL1 Copyright (c) Steve Scherf et al.
# Submitted via: CDex 1.30
#
DISCID=c80df80d
DTITLE=Albert Lee and Hogan's Heroes - in full flight - Live at Montreaux
DYEAR=1993
DGENRE=Country
TTITLE0=Intro
TTITLE1=Sweet little Lisa
TTITLE2=Just because
TTITLE3=Evangelina
TTITLE4=One way rider
TTITLE5=Cannon Ball
TTITLE6=Seventeenth summer
TTITLE7=The highwayman
TTITLE8=Restless
TTITLE9=Pink bedroom
TTITLE10=Real wild child
TTITLE11=Country boy
TTITLE12=Tear stained letter
EXTD=\n\n\nYEAR: 1993  ID3G:   2
EXTT0=
EXTT1=
EXTT2=
EXTT3=
EXTT4=
EXTT5=
EXTT6=
EXTT7=
EXTT8=
EXTT9=
EXTT10=
EXTT11=
EXTT12=
PLAYORDER=
